<?xml version="1.0" encoding="utf-8"?>
<!-- Generator: Adobe Illustrator 16.0.0, SVG Export Plug-In . SVG Version: 6.00 Build 0)  -->
<!DOCTYPE svg PUBLIC "-//W3C//DTD SVG 1.1//EN" "http://www.w3.org/Graphics/SVG/1.1/DTD/svg11.dtd">
<svg version="1.1" id="Layer_1" xmlns="http://www.w3.org/2000/svg" xmlns:xlink="http://www.w3.org/1999/xlink" x="0px" y="0px"
	 width="256px" height="256px" viewBox="0 0 256 256" enable-background="new 0 0 256 256" xml:space="preserve">
<g>
	<g>
		<path fill="#E9E9EA" d="M217.797,151.052c0-4.152-34.672-7.512-77.446-7.512c-42.771,0-77.446,3.359-77.446,7.512
			c0,4.15,34.675,7.51,77.446,7.51C183.125,158.562,217.797,155.202,217.797,151.052z"/>
	</g>
	<g>
		<path fill="#1A3E6E" d="M136.606,143.411c0-6.865-5.562-12.43-12.433-12.43c-6.863,0-12.431,5.564-12.431,12.43
			c0,6.869,5.567,12.434,12.431,12.434C131.044,155.845,136.606,150.28,136.606,143.411z"/>
	</g>
	<g>
		<path fill="#1A3E6E" d="M81.181,135.019c0-6.039-4.896-10.934-10.933-10.934c-6.042,0-10.938,4.895-10.938,10.934
			s4.896,10.938,10.938,10.938C76.285,145.956,81.181,141.058,81.181,135.019z"/>
	</g>
	<g>
		
			<rect x="46.848" y="80.816" transform="matrix(0.0621 0.9981 -0.9981 0.0621 155.6181 13.9997)" fill="#944B9D" width="47.023" height="17.975"/>
	</g>
	<g>
		<rect x="85.752" y="49.036" fill="#99CB47" width="17.974" height="67.411"/>
	</g>
	<g>
		
			<rect x="108.67" y="37.453" transform="matrix(0.997 0.0769 -0.0769 0.997 6.3666 -8.8177)" fill="#F26630" width="17.979" height="81.585"/>
	</g>
	<g>
		<line fill="#1A3E6E" x1="153.386" y1="29.038" x2="134.511" y2="121.388"/>
		
			<rect x="133.163" y="28.082" transform="matrix(0.9798 0.2002 -0.2002 0.9798 17.9707 -27.2943)" fill="#28B4E9" width="21.571" height="94.261"/>
	</g>
	<g>
		<path fill="#1A3E6E" d="M151.995,131.171L45.318,115.79l-7.115-68.777h37.438v10.787H50.159l5.021,48.515l89.709,12.933
			l28.604-77.692c1.849-5.985,7.956-16.562,18.542-16.562c10.891,0,20.699,6.206,21.109,6.47l-5.818,9.08
			c-0.062-0.039-7.613-4.765-15.291-4.765c-4.537,0-7.729,7.287-8.33,9.24L151.995,131.171z"/>
	</g>
</g>
<g>
	<path fill="#010101" d="M50.946,196.685l4.713-24.075l7.687,17.404l7.962-17.404l4.235,24.075h-3.466l-2.161-13.517l-6.628,14.546
		l-6.439-14.561l-2.408,13.531H50.946z"/>
	<path fill="#010101" d="M82.925,182.559v8.107c0,2.34,0.923,3.51,2.77,3.51c1.847,0,2.77-1.17,2.77-3.51v-8.107h3.263v8.18
		c0,1.131-0.14,2.108-0.421,2.93c-0.271,0.735-0.739,1.397-1.407,1.987c-1.102,0.957-2.504,1.436-4.206,1.436
		c-1.692,0-3.089-0.479-4.191-1.436c-0.677-0.59-1.156-1.252-1.436-1.987c-0.271-0.657-0.406-1.634-0.406-2.93v-8.18H82.925z"/>
	<path fill="#010101" d="M99.11,172.189v24.495h-3.263v-24.495H99.11z"/>
	<path fill="#010101" d="M106.608,185.604v11.08h-3.263v-11.08h-1.393v-3.046h1.393v-5.178h3.263v5.178h2.538v3.046H106.608z"/>
	<path fill="#010101" d="M110.872,176.685c0-0.57,0.208-1.063,0.624-1.479c0.416-0.416,0.914-0.624,1.494-0.624
		c0.59,0,1.093,0.208,1.508,0.624c0.416,0.405,0.624,0.903,0.624,1.493s-0.208,1.093-0.624,1.509
		c-0.406,0.416-0.904,0.623-1.494,0.623s-1.093-0.207-1.508-0.623C111.08,177.792,110.872,177.284,110.872,176.685z
		 M114.628,182.559v14.126h-3.263v-14.126H114.628z"/>
	<path fill="#010101" d="M122.025,172.189v24.495h-3.263v-24.495H122.025z"/>
	<path fill="#010101" d="M125.665,176.685c0-0.57,0.208-1.063,0.624-1.479c0.416-0.416,0.914-0.624,1.494-0.624
		c0.59,0,1.093,0.208,1.509,0.624c0.415,0.405,0.623,0.903,0.623,1.493s-0.208,1.093-0.623,1.509
		c-0.406,0.416-0.904,0.623-1.494,0.623s-1.093-0.207-1.508-0.623C125.873,177.792,125.665,177.284,125.665,176.685z
		 M129.422,182.559v14.126h-3.264v-14.126H129.422z"/>
	<path fill="#010101" d="M133.555,182.559h3.277v1.306c1.141-1.132,2.427-1.697,3.858-1.697c1.644,0,2.924,0.518,3.843,1.552
		c0.793,0.88,1.189,2.315,1.189,4.308v8.658h-3.277v-7.89c0-1.393-0.194-2.354-0.581-2.886c-0.377-0.542-1.063-0.812-2.059-0.812
		c-1.083,0-1.852,0.357-2.307,1.073c-0.444,0.706-0.667,1.938-0.667,3.698v6.816h-3.277V182.559z"/>
	<path fill="#010101" d="M163.504,196.351c0,0.668-0.022,1.255-0.065,1.763c-0.044,0.508-0.104,0.954-0.182,1.342
		c-0.232,1.063-0.687,1.977-1.363,2.74c-1.276,1.47-3.031,2.205-5.265,2.205c-1.886,0-3.438-0.508-4.655-1.523
		c-1.257-1.044-1.982-2.489-2.176-4.336h3.278c0.125,0.696,0.333,1.232,0.623,1.609c0.677,0.88,1.663,1.32,2.959,1.32
		c2.388,0,3.582-1.465,3.582-4.395v-1.973c-1.296,1.325-2.789,1.987-4.481,1.987c-1.924,0-3.5-0.696-4.728-2.089
		c-1.238-1.411-1.856-3.176-1.856-5.293c0-2.06,0.575-3.81,1.726-5.25c1.237-1.528,2.871-2.292,4.902-2.292
		c1.778,0,3.258,0.662,4.438,1.987v-1.596h3.264V196.351z M160.371,189.65c0-1.372-0.368-2.47-1.103-3.292
		c-0.744-0.841-1.697-1.262-2.857-1.262c-1.237,0-2.214,0.459-2.93,1.378c-0.647,0.822-0.972,1.886-0.972,3.19
		c0,1.286,0.324,2.34,0.972,3.162c0.706,0.898,1.683,1.349,2.93,1.349c1.248,0,2.233-0.454,2.959-1.363
		C160.037,191.99,160.371,190.937,160.371,189.65z"/>
	<path fill="#010101" d="M170.885,182.559v8.107c0,2.34,0.924,3.51,2.771,3.51s2.77-1.17,2.77-3.51v-8.107h3.264v8.18
		c0,1.131-0.141,2.108-0.421,2.93c-0.271,0.735-0.739,1.397-1.406,1.987c-1.103,0.957-2.505,1.436-4.206,1.436
		c-1.692,0-3.089-0.479-4.191-1.436c-0.677-0.59-1.155-1.252-1.436-1.987c-0.271-0.657-0.406-1.634-0.406-2.93v-8.18H170.885z"/>
	<path fill="#010101" d="M194.221,182.559h3.277v14.126h-3.277v-1.479c-1.344,1.257-2.79,1.886-4.337,1.886
		c-1.953,0-3.567-0.706-4.844-2.117c-1.267-1.441-1.899-3.239-1.899-5.396c0-2.117,0.633-3.882,1.899-5.294
		c1.267-1.411,2.853-2.117,4.757-2.117c1.644,0,3.118,0.677,4.424,2.03V182.559z M186.476,189.578c0,1.354,0.363,2.456,1.088,3.307
		c0.745,0.86,1.683,1.291,2.813,1.291c1.209,0,2.186-0.416,2.93-1.247c0.745-0.861,1.117-1.953,1.117-3.278
		c0-1.324-0.372-2.417-1.117-3.277c-0.744-0.841-1.711-1.262-2.9-1.262c-1.122,0-2.06,0.426-2.813,1.276
		C186.848,187.248,186.476,188.312,186.476,189.578z"/>
	<path fill="#010101" d="M204.88,172.189v24.495h-3.263v-24.495H204.88z"/>
	<path fill="#010101" d="M77.958,211.139v4.003c-1.953-1.635-3.974-2.451-6.062-2.451c-2.301,0-4.24,0.826-5.815,2.479
		c-1.586,1.645-2.378,3.655-2.378,6.033c0,2.35,0.792,4.332,2.378,5.946c1.585,1.615,3.529,2.422,5.83,2.422
		c1.189,0,2.2-0.193,3.031-0.58c0.464-0.193,0.945-0.454,1.443-0.783c0.498-0.328,1.022-0.725,1.574-1.188v4.075
		c-1.934,1.093-3.964,1.639-6.091,1.639c-3.2,0-5.932-1.117-8.194-3.351c-2.253-2.253-3.379-4.97-3.379-8.15
		c0-2.853,0.942-5.396,2.828-7.629c2.32-2.735,5.322-4.104,9.006-4.104C74.138,209.499,76.082,210.046,77.958,211.139z"/>
	<path fill="#010101" d="M80.93,225.163c0-2.04,0.73-3.776,2.19-5.207s3.239-2.146,5.337-2.146c2.107,0,3.896,0.721,5.366,2.161
		c1.45,1.44,2.175,3.21,2.175,5.308c0,2.118-0.73,3.893-2.19,5.323c-1.47,1.421-3.273,2.132-5.41,2.132
		c-2.118,0-3.892-0.726-5.323-2.176C81.646,229.127,80.93,227.329,80.93,225.163z M84.266,225.221c0,1.412,0.377,2.528,1.131,3.351
		c0.773,0.831,1.793,1.247,3.06,1.247c1.276,0,2.296-0.411,3.06-1.233c0.764-0.821,1.146-1.919,1.146-3.292
		c0-1.372-0.382-2.47-1.146-3.292c-0.774-0.831-1.793-1.247-3.06-1.247c-1.248,0-2.258,0.416-3.031,1.247
		C84.653,222.833,84.266,223.906,84.266,225.221z"/>
	<path fill="#010101" d="M99.451,218.201h3.263v1.306c0.628-0.657,1.165-1.103,1.61-1.335c0.474-0.241,1.068-0.362,1.784-0.362
		c1.595,0,2.857,0.696,3.785,2.089c1.025-1.393,2.412-2.089,4.163-2.089c3.181,0,4.771,1.929,4.771,5.787v8.73h-3.278v-7.846
		c0-1.354-0.165-2.312-0.493-2.872c-0.338-0.57-0.895-0.855-1.668-0.855c-0.899,0-1.554,0.339-1.965,1.015
		c-0.411,0.678-0.617,1.765-0.617,3.264v7.295h-3.277v-7.803c0-2.514-0.725-3.771-2.176-3.771c-0.918,0-1.588,0.343-2.008,1.029
		c-0.421,0.687-0.631,1.77-0.631,3.249v7.295h-3.263V218.201z"/>
	<path fill="#010101" d="M122.946,218.201h3.263v1.306c0.628-0.657,1.165-1.103,1.61-1.335c0.474-0.241,1.068-0.362,1.784-0.362
		c1.595,0,2.856,0.696,3.786,2.089c1.023-1.393,2.412-2.089,4.162-2.089c3.18,0,4.771,1.929,4.771,5.787v8.73h-3.279v-7.846
		c0-1.354-0.164-2.312-0.492-2.872c-0.338-0.57-0.895-0.855-1.668-0.855c-0.898,0-1.555,0.339-1.965,1.015
		c-0.412,0.678-0.617,1.765-0.617,3.264v7.295h-3.277v-7.803c0-2.514-0.725-3.771-2.175-3.771c-0.918,0-1.588,0.343-2.008,1.029
		c-0.421,0.687-0.631,1.77-0.631,3.249v7.295h-3.263V218.201z"/>
	<path fill="#010101" d="M159.305,226.033h-10.123c0.087,1.16,0.464,2.083,1.131,2.77c0.667,0.677,1.522,1.016,2.567,1.016
		c0.812,0,1.483-0.193,2.016-0.58c0.522-0.387,1.117-1.103,1.784-2.146l2.755,1.537c-0.425,0.726-0.875,1.347-1.349,1.863
		c-0.474,0.518-0.981,0.943-1.522,1.276c-0.542,0.334-1.127,0.578-1.755,0.732c-0.629,0.154-1.311,0.232-2.045,0.232
		c-2.108,0-3.8-0.677-5.076-2.03c-1.276-1.363-1.914-3.172-1.914-5.425c0-2.233,0.618-4.041,1.856-5.424
		c1.247-1.363,2.9-2.045,4.96-2.045c2.078,0,3.722,0.662,4.931,1.987c1.199,1.314,1.799,3.138,1.799,5.468L159.305,226.033z
		 M155.954,223.364c-0.454-1.74-1.552-2.61-3.292-2.61c-0.396,0-0.769,0.061-1.117,0.182c-0.348,0.12-0.664,0.295-0.949,0.521
		c-0.285,0.228-0.529,0.501-0.732,0.819c-0.203,0.319-0.358,0.682-0.465,1.088H155.954z"/>
	<path fill="#010101" d="M162.872,218.201h3.277v1.306c1.141-1.132,2.427-1.697,3.858-1.697c1.644,0,2.924,0.518,3.843,1.552
		c0.793,0.88,1.189,2.315,1.189,4.308v8.658h-3.277v-7.89c0-1.393-0.194-2.354-0.581-2.886c-0.377-0.542-1.063-0.812-2.059-0.812
		c-1.083,0-1.852,0.357-2.307,1.073c-0.444,0.706-0.667,1.938-0.667,3.698v6.816h-3.277V218.201z"/>
	<path fill="#010101" d="M182.523,221.247v11.08h-3.263v-11.08h-1.393v-3.046h1.393v-5.178h3.263v5.178h2.538v3.046H182.523z"/>
	<path fill="#010101" d="M195.49,220.608l-2.698,1.437c-0.426-0.87-0.952-1.306-1.581-1.306c-0.3,0-0.556,0.1-0.769,0.297
		c-0.213,0.199-0.318,0.452-0.318,0.762c0,0.542,0.628,1.078,1.885,1.61c1.73,0.744,2.896,1.431,3.495,2.059
		c0.6,0.629,0.899,1.475,0.899,2.538c0,1.363-0.503,2.505-1.508,3.423c-0.977,0.87-2.156,1.306-3.539,1.306
		c-2.369,0-4.046-1.155-5.032-3.467l2.784-1.29c0.387,0.677,0.682,1.106,0.885,1.29c0.396,0.368,0.87,0.552,1.421,0.552
		c1.103,0,1.653-0.503,1.653-1.509c0-0.58-0.425-1.121-1.275-1.624c-0.329-0.164-0.658-0.324-0.986-0.479
		c-0.329-0.154-0.663-0.314-1.001-0.479c-0.947-0.464-1.615-0.929-2.002-1.393c-0.492-0.59-0.739-1.349-0.739-2.277
		c0-1.228,0.421-2.242,1.262-3.045c0.86-0.803,1.904-1.204,3.133-1.204C193.266,217.81,194.609,218.743,195.49,220.608z"/>
</g>
</svg>
